<svg width="20" height="14" viewBox="0 0 20 14" fill="none" xmlns="http://www.w3.org/2000/svg">
<path d="M5.45831 9.67517L3.24572 7.46259C3.1357 7.35633 2.98835 7.29753 2.83541 7.29886C2.68246 7.30019 2.53615 7.36154 2.428 7.46969C2.31984 7.57785 2.25849 7.72415 2.25716 7.8771C2.25583 8.03005 2.31463 8.1774 2.42089 8.28742L5.04589 10.9124C5.15528 11.0218 5.30363 11.0832 5.45831 11.0832C5.61299 11.0832 5.76133 11.0218 5.87072 10.9124L12.2874 4.49575C12.3936 4.38574 12.4524 4.23838 12.4511 4.08544C12.4498 3.93249 12.3884 3.78618 12.2803 3.67803C12.1721 3.56987 12.0258 3.50852 11.8729 3.50719C11.7199 3.50586 11.5726 3.56466 11.4626 3.67092L5.45831 9.67517Z" fill="white"/>
<path d="M10.4583 9.67517L8.24572 7.46259C8.1357 7.35633 7.98835 7.29753 7.83541 7.29886C7.68246 7.30019 7.53615 7.36154 7.428 7.46969C7.31984 7.57785 7.25849 7.72415 7.25716 7.8771C7.25583 8.03005 7.31463 8.1774 7.42089 8.28742L10.0459 10.9124C10.1553 11.0218 10.3036 11.0832 10.4583 11.0832C10.613 11.0832 10.7613 11.0218 10.8707 10.9124L17.2874 4.49575C17.3936 4.38574 17.4524 4.23838 17.4511 4.08544C17.4498 3.93249 17.3884 3.78618 17.2803 3.67803C17.1721 3.56987 17.0258 3.50852 16.8729 3.50719C16.7199 3.50586 16.5726 3.56466 16.4626 3.67092L10.4583 9.67517Z" fill="white"/>
</svg>
