<svg width="19" height="19" viewBox="0 0 19 19" fill="none" xmlns="http://www.w3.org/2000/svg">
<path d="M8 0.5C9.39798 0.499944 10.7681 0.890614 11.9559 1.62792C13.1436 2.36523 14.1016 3.41983 14.7218 4.6727C15.342 5.92558 15.5997 7.32686 15.4658 8.71841C15.3319 10.11 14.8117 11.4364 13.964 12.548L18.707 17.293C18.8864 17.473 18.9905 17.7144 18.9982 17.9684C19.006 18.2223 18.9168 18.4697 18.7488 18.6603C18.5807 18.8508 18.3464 18.9703 18.0935 18.9944C17.8406 19.0185 17.588 18.9454 17.387 18.79L17.293 18.707L12.548 13.964C11.601 14.6861 10.4957 15.1723 9.32344 15.3824C8.15123 15.5925 6.94583 15.5204 5.807 15.1721C4.66817 14.8238 3.62865 14.2094 2.77446 13.3795C1.92026 12.5497 1.27595 11.5285 0.89483 10.4002C0.513713 9.27192 0.406752 8.06912 0.582797 6.89131C0.758841 5.7135 1.21283 4.59454 1.9072 3.62703C2.60156 2.65951 3.51634 1.87126 4.57585 1.32749C5.63535 0.783715 6.80911 0.500063 8 0.5ZM8 2.5C6.54131 2.5 5.14236 3.07946 4.11091 4.11091C3.07946 5.14236 2.5 6.54131 2.5 8C2.5 9.45869 3.07946 10.8576 4.11091 11.8891C5.14236 12.9205 6.54131 13.5 8 13.5C9.45869 13.5 10.8576 12.9205 11.8891 11.8891C12.9205 10.8576 13.5 9.45869 13.5 8C13.5 6.54131 12.9205 5.14236 11.8891 4.11091C10.8576 3.07946 9.45869 2.5 8 2.5Z" fill="#707991"/>
</svg>
